<?xml version="1.0" encoding="utf-8"?>
<!-- Generator: Adobe Illustrator 25.1.0, SVG Export Plug-In . SVG Version: 6.00 Build 0)  -->
<svg version="1.1" id="Layer_1" xmlns="http://www.w3.org/2000/svg" xmlns:xlink="http://www.w3.org/1999/xlink" x="0px" y="0px"
	 viewBox="0 0 612 191.4" style="enable-background:new 0 0 612 191.4;" xml:space="preserve">
<style type="text/css">
	.st0{fill:#FFFFFF;}
</style>
<g>
	<g>
		<path class="st0" d="M159.8,36.3h32.6v10.1h-20.6v27h19.4v10.1h-19.4v29.2h20.6v10.1h-32.6L159.8,36.3L159.8,36.3z"/>
		<path class="st0" d="M206.8,36.3h18.5c17.5,0,19.3,4.7,19.3,23.6c0,11.6-1.6,16.6-11.4,19.6v0.2c8.1,0.8,10.9,5,10.9,13.2v18.8
			c0,3.1,0,7.4,0.7,11h-11.2c-1.2-2.2-1.4-4.3-1.4-7.8V95.4c0-8.1-1.4-10.3-9.3-10.3h-4.1v37.6h-12V36.3z M218.8,75h3.1
			c9.5,0,10.8-1.8,10.8-14.7c0-12.8-0.7-14-8.1-14h-5.7V75H218.8z"/>
		<path class="st0" d="M260.8,36.3h32.6v10.1h-20.6v27h19.4v10.1h-19.4v39.3h-12V36.3z"/>
		<path class="st0" d="M307.7,36.3h12v86.4h-12V36.3z"/>
		<path class="st0" d="M335.1,58.3c0-12.1,3.9-22.7,20.2-22.7c11.8,0,17.4,6,17.4,15.7v8.6h-11.2v-6c0-5.5-1.9-9-6.9-9
			c-6.2,0-7.4,4.4-7.4,14.8v42.4c0,10.2,3.2,12,7.1,12c4.4,0,7.3-3.1,7.3-10.3v-6h11.2v9.6c0,9.1-3.7,16-17.6,16
			c-15.1,0-20-8-20-21.4V58.3H335.1z"/>
		<path class="st0" d="M387.3,36.3h12v86.4h-12V36.3z"/>
		<path class="st0" d="M415.5,36.3H448v10.1h-20.6v27h19.4v10.1h-19.4v29.2H448v10.1h-32.6V36.3H415.5z"/>
		<path class="st0" d="M462.5,36.3H479l14.1,71.8h0.2V36.3h11.2v86.4h-17.2L473.2,49H473v73.7h-10.5V36.3z"/>
		<path class="st0" d="M519.1,36.3h40.7v10.1h-14.4v76.3h-12V46.3H519v-10H519.1z"/>
		<g>
			<path class="st0" d="M31.5,135.1V13.3h70.9c29.4,0,43.2,17,43.2,40c0,24.3-15.9,40.8-49.9,40.8H79.5v-4.3h12.2
				c23.7,0,34.7-12.9,34.7-31.9c0-17.9-9.6-31.2-30-31.2H47.2v95.1h32.6v13.3L31.5,135.1L31.5,135.1z"/>
			<path class="st0" d="M79.5,68.2V48.3H83c7.3,0,10.1,2.9,10.1,9.6s-3.3,10.3-11.9,10.3L79.5,68.2L79.5,68.2z"/>
		</g>
		<path class="st0" d="M568.7,46.3c2.8,0,5-2.2,5-5s-2.2-5-5-5s-5,2.2-5,5C563.7,44,566,46.3,568.7,46.3L568.7,46.3z M568.7,45.4
			c-2.3,0-4.1-1.8-4.1-4.1s1.8-4.1,4.1-4.1s4.1,1.9,4.1,4.1S571,45.4,568.7,45.4L568.7,45.4z M568.4,41.6c0.3,0,0.6,0,0.9,0.2
			c0.3,0.3,0.3,0.7,0.3,1.3c0,0.3,0.1,0.7,0.2,1.1h1.2c-0.2-0.5-0.3-1.1-0.3-1.7c-0.1-0.6-0.2-1-1-1.2l0,0c0.8-0.2,1.2-0.7,1.2-1.4
			c0-1.3-1.1-1.6-2.2-1.6h-1.9v5.9h0.9v-2.5L568.4,41.6L568.4,41.6z M567.7,40.7v-1.5h1.1c0.7,0,0.9,0.2,0.9,0.7s-0.2,0.8-1.1,0.8
			H567.7L567.7,40.7z"/>
	</g>
	<g>
		<g>
			<path class="st0" d="M260.5,174.9h17v2.2h-19.6v-35.9h2.6V174.9z"/>
			<path class="st0" d="M298.7,177.1c-0.5,0-0.8-0.2-0.9-0.7l-0.4-3.2c-0.7,0.7-1.4,1.3-2.1,1.8s-1.4,1-2.1,1.4s-1.5,0.7-2.4,0.8
				c-0.9,0.2-1.8,0.3-2.8,0.3c-0.9,0-1.7-0.1-2.5-0.4c-0.8-0.3-1.5-0.6-2.2-1.2c-0.6-0.5-1.1-1.2-1.5-2s-0.6-1.8-0.6-3
				c0-1.1,0.3-2.1,0.9-3s1.6-1.7,2.9-2.4s3-1.2,5-1.6c2-0.4,4.5-0.6,7.3-0.7v-2.6c0-2.3-0.5-4.1-1.5-5.4c-1-1.3-2.5-1.9-4.5-1.9
				c-1.2,0-2.3,0.2-3.1,0.5c-0.9,0.3-1.6,0.7-2.2,1.1c-0.6,0.4-1.1,0.8-1.4,1.1c-0.4,0.3-0.7,0.5-0.9,0.5c-0.3,0-0.6-0.2-0.8-0.5
				l-0.4-0.7c1.3-1.3,2.7-2.3,4.2-3s3.1-1,4.9-1c1.4,0,2.5,0.2,3.5,0.6c1,0.4,1.9,1,2.5,1.9c0.7,0.8,1.2,1.8,1.5,2.9
				c0.3,1.1,0.5,2.4,0.5,3.8v16.4h-0.9V177.1z M288.6,175.7c1,0,1.9-0.1,2.7-0.3c0.8-0.2,1.6-0.5,2.3-0.9c0.7-0.4,1.4-0.8,2-1.4
				c0.6-0.5,1.2-1.1,1.8-1.7v-6.6c-2.4,0.1-4.5,0.2-6.2,0.5s-3.2,0.7-4.3,1.2c-1.1,0.5-2,1.1-2.5,1.8s-0.8,1.5-0.8,2.4
				c0,0.8,0.1,1.6,0.4,2.2c0.3,0.6,0.6,1.1,1.1,1.5s1,0.7,1.6,0.9C287.3,175.6,287.9,175.7,288.6,175.7z"/>
			<path class="st0" d="M314.1,177.5c-1.7,0-3-0.5-4-1.4c-0.9-0.9-1.4-2.4-1.4-4.4v-17.2h-3.6c-0.2,0-0.3,0-0.5-0.2
				c-0.1-0.1-0.2-0.2-0.2-0.4V153l4.3-0.3l0.6-9c0-0.2,0.1-0.3,0.2-0.4c0.1-0.1,0.3-0.2,0.4-0.2h1.1v9.6h7.9v1.8H311v17.1
				c0,0.7,0.1,1.3,0.3,1.8c0.2,0.5,0.4,0.9,0.7,1.2c0.3,0.3,0.7,0.6,1.1,0.7c0.4,0.2,0.9,0.2,1.4,0.2c0.6,0,1.1-0.1,1.6-0.3
				c0.4-0.2,0.8-0.4,1.1-0.6c0.3-0.2,0.6-0.4,0.8-0.6c0.2-0.2,0.4-0.3,0.5-0.3s0.3,0.1,0.4,0.3l0.7,1.1c-0.6,0.7-1.5,1.3-2.4,1.7
				C316.2,177.3,315.2,177.5,314.1,177.5z"/>
			<path class="st0" d="M329.5,143.1c0,0.3-0.1,0.6-0.2,0.9c-0.1,0.3-0.3,0.5-0.5,0.7s-0.4,0.4-0.7,0.5s-0.6,0.2-0.9,0.2
				s-0.6-0.1-0.9-0.2s-0.5-0.3-0.7-0.5s-0.4-0.4-0.5-0.7s-0.2-0.5-0.2-0.9c0-0.3,0.1-0.6,0.2-0.9c0.1-0.3,0.3-0.5,0.5-0.7
				s0.4-0.4,0.7-0.5s0.6-0.2,0.9-0.2s0.6,0.1,0.9,0.2s0.5,0.3,0.7,0.5s0.4,0.4,0.5,0.7C329.5,142.6,329.5,142.8,329.5,143.1z
				 M328.5,151.8V177h-2.4v-25.2H328.5z"/>
			<path class="st0" d="M337.4,177.1v-25.2h1.3c0.4,0,0.7,0.2,0.8,0.6l0.2,3.8c1.1-1.5,2.5-2.6,4-3.5s3.2-1.3,5.1-1.3
				c1.4,0,2.6,0.2,3.7,0.7c1.1,0.4,1.9,1.1,2.6,1.9c0.7,0.8,1.2,1.8,1.6,3s0.5,2.5,0.5,4v16.1h-2.4v-16.1c0-2.4-0.5-4.2-1.6-5.6
				c-1.1-1.3-2.7-2-5-2c-1.7,0-3.2,0.4-4.6,1.3c-1.4,0.9-2.7,2-3.8,3.5v18.9L337.4,177.1L337.4,177.1z"/>
			<path class="st0" d="M402.8,177.1h-2c-0.2,0-0.4-0.1-0.6-0.2c-0.2-0.1-0.3-0.3-0.4-0.5l-4.2-10.4H378l-4.2,10.4
				c-0.1,0.2-0.2,0.3-0.4,0.5c-0.2,0.1-0.4,0.2-0.6,0.2h-2l14.7-35.9h2.6L402.8,177.1z M378.8,164h16.1l-7.3-18.1
				c-0.1-0.3-0.2-0.6-0.4-1c-0.1-0.4-0.2-0.7-0.4-1.2c-0.1,0.4-0.2,0.8-0.4,1.2c-0.1,0.4-0.2,0.7-0.4,1L378.8,164z"/>
			<path class="st0" d="M407.3,177.1v-25.2h1.3c0.4,0,0.7,0.2,0.8,0.6l0.2,3.6c0.5-0.7,1-1.3,1.6-1.9c0.6-0.6,1.2-1.1,1.8-1.5
				c0.6-0.4,1.3-0.7,2-1c0.7-0.2,1.5-0.3,2.3-0.3c1.8,0,3.3,0.5,4.4,1.6s1.8,2.6,2.2,4.5c0.3-1,0.7-2,1.3-2.7
				c0.5-0.8,1.2-1.4,1.9-1.9c0.7-0.5,1.5-0.9,2.3-1.1c0.8-0.2,1.7-0.4,2.6-0.4c1.2,0,2.4,0.2,3.4,0.6c1,0.4,1.8,1,2.5,1.8
				s1.2,1.8,1.6,3s0.6,2.5,0.6,4.1V177h-2.4v-16.1c0-2.5-0.5-4.3-1.6-5.6s-2.6-1.9-4.6-1.9c-0.9,0-1.7,0.2-2.5,0.5s-1.5,0.8-2.1,1.4
				c-0.6,0.6-1.1,1.4-1.5,2.4c-0.4,0.9-0.5,2-0.5,3.3v16.1h-2.4V161c0-2.4-0.5-4.3-1.5-5.6s-2.4-2-4.3-2c-1.4,0-2.6,0.4-3.8,1.2
				c-1.2,0.8-2.2,2-3.1,3.4v19.1L407.3,177.1L407.3,177.1z"/>
			<path class="st0" d="M457.1,151.4c1.4,0,2.7,0.2,3.9,0.7c1.2,0.5,2.3,1.2,3.1,2.1c0.9,0.9,1.6,2.1,2.1,3.5s0.7,2.9,0.7,4.7
				c0,0.4-0.1,0.6-0.2,0.8s-0.3,0.2-0.5,0.2H448v0.5c0,1.9,0.2,3.6,0.7,5c0.4,1.4,1.1,2.6,1.9,3.6s1.8,1.7,2.9,2.2s2.4,0.7,3.9,0.7
				c1.3,0,2.4-0.1,3.3-0.4c0.9-0.3,1.7-0.6,2.3-0.9c0.6-0.3,1.1-0.7,1.5-0.9c0.4-0.3,0.6-0.4,0.8-0.4c0.2,0,0.4,0.1,0.5,0.3l0.7,0.8
				c-0.4,0.5-0.9,1-1.6,1.4s-1.4,0.8-2.2,1.1s-1.7,0.6-2.6,0.7c-0.9,0.2-1.9,0.3-2.8,0.3c-1.7,0-3.3-0.3-4.7-0.9
				c-1.4-0.6-2.6-1.5-3.7-2.6c-1-1.1-1.8-2.6-2.4-4.2c-0.6-1.7-0.8-3.6-0.8-5.7c0-1.8,0.3-3.5,0.8-5s1.3-2.8,2.2-4
				c1-1.1,2.2-2,3.6-2.6C453.7,151.7,455.3,151.4,457.1,151.4z M457.1,153.2c-1.3,0-2.5,0.2-3.5,0.6c-1,0.4-1.9,1-2.7,1.7
				c-0.8,0.8-1.4,1.7-1.8,2.7c-0.5,1.1-0.8,2.3-0.9,3.6h16.6c0-1.4-0.2-2.6-0.6-3.6c-0.4-1.1-0.9-2-1.6-2.7s-1.5-1.3-2.4-1.7
				C459.3,153.4,458.3,153.2,457.1,153.2z"/>
			<path class="st0" d="M473.5,177.1v-25.2h1.3c0.3,0,0.5,0.1,0.6,0.2c0.1,0.1,0.2,0.3,0.2,0.6l0.2,5.3c0.8-2,1.9-3.6,3.2-4.8
				c1.4-1.2,3-1.7,5-1.7c0.8,0,1.5,0.1,2.1,0.2c0.6,0.2,1.3,0.4,1.8,0.7l-0.3,1.7c-0.1,0.3-0.2,0.4-0.5,0.4c-0.1,0-0.2,0-0.4-0.1
				c-0.2-0.1-0.4-0.1-0.7-0.2c-0.3-0.1-0.6-0.2-1-0.2c-0.4-0.1-0.9-0.1-1.4-0.1c-1.9,0-3.5,0.6-4.7,1.8s-2.2,2.9-3,5.1v16.4
				L473.5,177.1L473.5,177.1z"/>
			<path class="st0" d="M497.8,143.1c0,0.3-0.1,0.6-0.2,0.9c-0.1,0.3-0.3,0.5-0.5,0.7s-0.4,0.4-0.7,0.5s-0.6,0.2-0.9,0.2
				s-0.6-0.1-0.9-0.2s-0.5-0.3-0.7-0.5s-0.4-0.4-0.5-0.7s-0.2-0.5-0.2-0.9c0-0.3,0.1-0.6,0.2-0.9c0.1-0.3,0.3-0.5,0.5-0.7
				s0.4-0.4,0.7-0.5s0.6-0.2,0.9-0.2s0.6,0.1,0.9,0.2s0.5,0.3,0.7,0.5s0.4,0.4,0.5,0.7C497.7,142.6,497.8,142.8,497.8,143.1z
				 M496.7,151.8V177h-2.4v-25.2H496.7z"/>
			<path class="st0" d="M522.3,155.2c-0.1,0.1-0.2,0.2-0.2,0.2c-0.1,0.1-0.2,0.1-0.3,0.1c-0.2,0-0.4-0.1-0.7-0.3s-0.7-0.5-1.2-0.7
				c-0.5-0.3-1.1-0.5-1.8-0.7s-1.6-0.3-2.7-0.3c-1.5,0-2.7,0.3-3.9,0.8c-1.1,0.5-2.1,1.3-2.8,2.2c-0.8,1-1.4,2.1-1.8,3.5
				s-0.6,2.9-0.6,4.6c0,1.8,0.2,3.3,0.6,4.7s1,2.5,1.8,3.5c0.8,0.9,1.7,1.7,2.8,2.1c1.1,0.5,2.3,0.7,3.6,0.7c1.2,0,2.2-0.1,3.1-0.4
				c0.8-0.3,1.5-0.6,2-0.9c0.5-0.3,1-0.7,1.3-0.9s0.6-0.4,0.7-0.4c0.2,0,0.4,0.1,0.5,0.3l0.7,0.8c-0.4,0.5-0.9,1-1.5,1.4
				s-1.3,0.8-2,1.1s-1.6,0.6-2.4,0.7s-1.8,0.3-2.7,0.3c-1.6,0-3.1-0.3-4.4-0.9c-1.3-0.6-2.5-1.4-3.4-2.5s-1.7-2.5-2.2-4.1
				s-0.8-3.4-0.8-5.5c0-1.9,0.3-3.7,0.8-5.3s1.2-3,2.2-4.1s2.2-2,3.6-2.7c1.4-0.6,3-0.9,4.9-0.9c1.6,0,3.1,0.3,4.4,0.8
				c1.3,0.5,2.4,1.2,3.3,2.1L522.3,155.2z"/>
			<path class="st0" d="M544.8,177.1c-0.5,0-0.8-0.2-0.9-0.7l-0.4-3.2c-0.7,0.7-1.4,1.3-2.1,1.8c-0.7,0.5-1.4,1-2.1,1.4
				c-0.7,0.4-1.5,0.7-2.4,0.8c-0.9,0.2-1.8,0.3-2.8,0.3c-0.9,0-1.7-0.1-2.5-0.4c-0.8-0.3-1.5-0.6-2.2-1.2c-0.6-0.5-1.1-1.2-1.5-2
				s-0.6-1.8-0.6-3c0-1.1,0.3-2.1,0.9-3c0.6-0.9,1.6-1.7,2.9-2.4c1.3-0.7,3-1.2,5-1.6c2-0.4,4.5-0.6,7.3-0.7v-2.6
				c0-2.3-0.5-4.1-1.5-5.4c-1-1.3-2.5-1.9-4.5-1.9c-1.2,0-2.3,0.2-3.1,0.5c-0.9,0.3-1.6,0.7-2.2,1.1c-0.6,0.4-1.1,0.8-1.4,1.1
				c-0.4,0.3-0.7,0.5-0.9,0.5c-0.3,0-0.6-0.2-0.8-0.5l-0.4-0.7c1.3-1.3,2.7-2.3,4.2-3s3.1-1,4.9-1c1.4,0,2.5,0.2,3.5,0.6
				c1,0.4,1.9,1,2.5,1.9c0.7,0.8,1.2,1.8,1.5,2.9c0.3,1.1,0.5,2.4,0.5,3.8v16.4h-0.9V177.1z M534.7,175.7c1,0,1.9-0.1,2.7-0.3
				s1.6-0.5,2.3-0.9s1.4-0.8,2-1.4c0.6-0.5,1.2-1.1,1.8-1.7v-6.6c-2.4,0.1-4.5,0.2-6.2,0.5s-3.2,0.7-4.3,1.2s-2,1.1-2.5,1.8
				s-0.8,1.5-0.8,2.4c0,0.8,0.1,1.6,0.4,2.2s0.6,1.1,1.1,1.5s1,0.7,1.6,0.9C533.4,175.6,534,175.7,534.7,175.7z"/>
		</g>
	</g>
</g>
</svg>
